<svg
 xmlns="http://www.w3.org/2000/svg"
 xmlns:xlink="http://www.w3.org/1999/xlink"
 width="81px" height="94px">
<path fill-rule="evenodd"  fill="rgb(51, 54, 65)"
 d="M75.834,63.097 C73.342,69.874 69.570,75.765 64.625,80.607 C58.995,86.120 51.622,90.499 42.712,93.623 C42.420,93.725 42.117,93.808 41.810,93.870 C41.377,93.957 40.940,94.000 40.504,94.000 C40.068,94.000 39.632,93.957 39.199,93.870 C38.892,93.808 38.590,93.726 38.300,93.625 C29.379,90.506 21.999,86.129 16.364,80.616 C11.416,75.774 7.645,69.885 5.154,63.110 C0.625,50.789 0.883,37.216 1.090,26.309 L1.095,26.141 C1.135,25.241 1.162,24.295 1.178,23.251 C1.254,18.121 5.321,13.878 10.437,13.592 C21.105,12.994 29.358,9.506 36.409,2.616 L36.469,2.558 C38.770,0.444 42.239,0.444 44.539,2.558 L44.599,2.616 C51.651,9.506 59.903,12.994 70.571,13.591 C75.688,13.878 79.755,18.121 79.830,23.250 C79.847,24.302 79.874,25.247 79.914,26.141 L79.917,26.213 C80.123,37.140 80.380,50.740 75.834,63.097 ZM74.474,26.352 C74.431,25.414 74.403,24.424 74.387,23.332 C74.353,21.053 72.544,19.169 70.268,19.042 C64.231,18.704 58.927,17.534 54.054,15.466 C49.188,13.401 44.865,10.489 40.841,6.566 C40.637,6.392 40.372,6.393 40.167,6.566 C36.144,10.489 31.821,13.401 26.954,15.466 C22.081,17.534 16.778,18.704 10.741,19.042 C8.465,19.169 6.656,21.053 6.622,23.331 C6.606,24.418 6.578,25.407 6.535,26.352 L6.534,26.413 C6.325,37.406 6.089,49.866 10.263,61.223 C15.037,74.209 24.794,83.122 40.093,88.470 C40.147,88.489 40.205,88.504 40.264,88.516 C40.424,88.548 40.585,88.548 40.743,88.517 C40.803,88.505 40.861,88.489 40.915,88.470 C56.198,83.112 65.949,74.194 70.726,61.208 C74.913,49.828 74.682,37.357 74.474,26.352 ZM40.503,70.672 C27.752,70.672 17.380,60.271 17.380,47.488 C17.380,34.704 27.752,24.304 40.503,24.304 C53.253,24.304 63.626,34.704 63.626,47.488 C63.626,60.271 53.253,70.672 40.503,70.672 ZM40.503,29.762 C30.754,29.762 22.824,37.714 22.824,47.488 C22.824,57.261 30.754,65.213 40.503,65.213 C50.250,65.213 58.181,57.261 58.181,47.488 C58.181,37.714 50.250,29.762 40.503,29.762 ZM38.333,56.848 C37.802,57.381 37.105,57.648 36.408,57.648 C35.712,57.648 35.015,57.381 34.484,56.848 L29.643,51.995 C28.581,50.930 28.581,49.202 29.643,48.136 C30.706,47.070 32.430,47.070 33.493,48.136 L36.408,51.058 L47.148,40.290 C48.212,39.223 49.936,39.223 50.999,40.290 C52.061,41.355 52.061,43.084 50.999,44.150 L38.333,56.848 Z"/>
</svg>