<svg
 xmlns="http://www.w3.org/2000/svg"
 xmlns:xlink="http://www.w3.org/1999/xlink"
 width="32px" height="33px">
<path fill-rule="evenodd"  stroke-width="2px" stroke="rgb(51, 54, 65)" fill-opacity="0" fill="rgb(0, 140, 255)"
 d="M7.128,24.886 C6.672,25.902 5.899,27.165 4.661,27.796 C4.257,28.007 4.345,28.638 4.793,28.711 C6.145,28.931 8.086,28.684 9.894,27.256 L9.921,27.275 C14.513,30.102 20.528,29.453 24.479,25.344 C29.167,20.456 29.167,12.541 24.479,7.663 C19.790,2.776 12.204,2.776 7.515,7.663 C3.002,12.366 2.835,19.871 7.005,24.785 L7.128,24.886 Z"/>
<path fill-rule="evenodd"  fill="rgb(51, 54, 65)"
 d="M16.497,8.779 C17.577,8.788 18.437,9.703 18.429,10.847 C18.420,11.973 17.542,12.897 16.488,12.888 C15.400,12.879 14.522,11.955 14.531,10.820 C14.539,9.676 15.417,8.779 16.497,8.779 L16.497,8.779 ZM12.696,14.252 C12.722,14.032 12.853,13.886 13.135,13.831 C13.284,13.803 13.433,13.794 13.582,13.794 L17.288,13.794 C17.744,13.794 18.016,14.023 18.025,14.499 C18.034,14.892 17.972,15.295 17.902,15.688 C17.656,17.144 17.393,18.599 17.138,20.054 C17.051,20.539 16.963,21.015 16.901,21.500 C16.875,21.729 16.910,21.976 16.963,22.205 C17.033,22.507 17.253,22.681 17.551,22.644 C17.797,22.617 18.043,22.525 18.280,22.433 C18.473,22.360 18.639,22.223 18.833,22.141 C19.114,22.022 19.351,22.232 19.281,22.534 C19.237,22.708 19.131,22.891 19.009,23.019 C18.297,23.770 17.445,24.218 16.427,24.227 C15.953,24.236 15.470,24.218 15.005,24.145 C14.223,24.025 13.231,23.019 13.371,21.939 C13.468,21.207 13.574,20.466 13.696,19.743 C13.907,18.471 14.127,17.199 14.337,15.927 C14.355,15.844 14.355,15.762 14.355,15.680 C14.355,15.149 14.197,14.956 13.688,14.883 C13.468,14.856 13.249,14.838 13.047,14.755 C12.783,14.663 12.678,14.453 12.696,14.252 L12.696,14.252 Z"/>
</svg>