<svg
 xmlns="http://www.w3.org/2000/svg"
 xmlns:xlink="http://www.w3.org/1999/xlink"
 width="42px" height="50px">
<path fill-rule="evenodd"  fill="rgb(222, 46, 36)"
 d="M39.900,-0.000 L2.100,-0.000 C0.840,-0.000 -0.000,1.057 -0.000,2.115 L-0.000,37.308 C-0.000,38.577 0.840,39.423 2.100,39.423 L6.300,39.423 L6.300,50.000 L21.000,39.423 L39.900,39.423 C40.950,39.423 42.000,38.577 42.000,37.308 L42.000,2.115 C42.000,1.057 40.950,-0.000 39.900,-0.000 ZM23.100,29.807 L18.900,29.807 L18.900,15.000 L23.100,15.000 L23.100,29.807 ZM21.000,10.769 C19.740,10.769 18.900,9.923 18.900,8.654 C18.900,7.596 19.740,6.538 21.000,6.538 C22.260,6.538 23.100,7.596 23.100,8.654 C23.100,9.923 22.260,10.769 21.000,10.769 Z"/>
</svg>