<svg
 xmlns="http://www.w3.org/2000/svg"
 xmlns:xlink="http://www.w3.org/1999/xlink"
 width="115px" height="68px">
<path fill-rule="evenodd"  fill="rgb(221, 221, 221)"
 d="M100.597,42.775 L100.597,46.680 L113.312,46.680 C114.244,46.680 115.000,47.432 115.000,48.363 C115.000,49.292 114.244,50.046 113.312,50.046 L110.294,50.046 C112.095,51.954 113.200,54.519 113.200,57.340 C113.200,63.218 108.405,68.000 102.510,68.000 C98.733,68.000 95.410,66.034 93.508,63.077 C91.606,66.034 88.283,68.000 84.506,68.000 C79.186,68.000 74.763,64.103 73.951,59.023 L66.389,59.023 L66.389,59.134 C66.389,62.043 64.017,64.409 61.100,64.409 L50.299,64.409 C47.382,64.409 45.010,62.043 45.010,59.134 L45.010,59.023 L30.248,59.023 C29.436,64.103 25.011,68.000 19.692,68.000 C14.372,68.000 9.948,64.103 9.137,59.023 L3.489,59.023 C1.565,59.023 0.000,57.462 0.000,55.543 L0.000,37.595 C0.000,37.481 0.011,37.367 0.034,37.253 C0.057,37.139 0.092,37.030 0.138,36.926 L7.350,20.015 C8.669,16.633 11.994,14.362 15.636,14.362 L25.093,14.362 C28.009,14.362 30.382,16.728 30.382,19.636 L30.382,46.680 L48.611,46.680 L48.611,42.775 C40.529,41.931 34.208,35.097 34.208,26.818 L34.208,23.227 C34.208,14.379 41.426,7.181 50.299,7.181 L68.414,7.181 L68.414,5.273 C68.414,2.365 70.787,-0.001 73.703,-0.001 L75.505,-0.001 C78.420,-0.001 80.792,2.365 80.792,5.273 L80.792,7.181 L98.909,7.181 C107.782,7.181 115.000,14.379 115.000,23.227 L115.000,26.818 C115.000,35.097 108.679,41.931 100.597,42.775 ZM102.510,64.633 C106.543,64.633 109.824,61.361 109.824,57.340 C109.824,53.317 106.543,50.046 102.510,50.046 C98.477,50.046 95.196,53.317 95.196,57.340 C95.196,61.361 98.477,64.633 102.510,64.633 ZM97.221,46.680 L97.221,42.864 L51.986,42.864 L51.986,46.680 L97.221,46.680 ZM93.508,51.601 C93.865,51.045 94.273,50.525 94.725,50.046 L92.291,50.046 C92.742,50.525 93.150,51.045 93.508,51.601 ZM84.506,64.633 C88.539,64.633 91.821,61.361 91.821,57.340 C91.821,53.317 88.539,50.046 84.506,50.046 C80.474,50.046 77.192,53.317 77.192,57.340 C77.192,61.361 80.474,64.633 84.506,64.633 ZM48.385,59.134 C48.385,60.187 49.244,61.042 50.299,61.042 L61.100,61.042 C62.155,61.042 63.014,60.187 63.014,59.134 L63.014,57.340 C63.014,56.288 62.155,55.432 61.100,55.432 L50.299,55.432 C49.244,55.432 48.385,56.288 48.385,57.340 L48.385,59.134 ZM3.376,48.475 L5.289,48.475 C5.347,48.475 5.401,48.420 5.401,48.363 L5.401,46.567 C5.401,46.510 5.347,46.455 5.289,46.455 L3.376,46.455 L3.376,48.475 ZM5.007,34.112 L16.091,34.112 C18.139,34.112 19.805,32.450 19.805,30.409 L19.805,24.910 L8.931,24.910 L5.007,34.112 ZM27.006,19.636 C27.006,18.584 26.148,17.728 25.093,17.728 L15.636,17.728 C13.371,17.728 11.303,19.145 10.490,21.253 C10.483,21.272 10.476,21.290 10.468,21.308 L10.367,21.544 L21.493,21.544 C22.425,21.544 23.181,22.298 23.181,23.227 L23.181,30.409 C23.181,34.307 20.001,37.478 16.091,37.478 L3.571,37.478 L3.376,37.933 L3.376,43.089 L5.289,43.089 C7.212,43.089 8.777,44.649 8.777,46.567 L8.777,48.363 C8.777,50.280 7.212,51.841 5.289,51.841 L3.376,51.841 L3.376,55.543 C3.376,55.606 3.426,55.657 3.489,55.657 L9.137,55.657 C9.948,50.575 14.372,46.680 19.692,46.680 L27.006,46.680 L27.006,19.636 ZM19.692,50.046 C15.659,50.046 12.378,53.317 12.378,57.340 C12.378,61.361 15.659,64.633 19.692,64.633 C23.725,64.633 27.006,61.361 27.006,57.340 C27.006,53.317 23.725,50.046 19.692,50.046 ZM27.477,50.046 C28.911,51.566 29.904,53.504 30.248,55.657 L45.288,55.657 C45.994,53.571 47.972,52.066 50.299,52.066 L61.100,52.066 C63.427,52.066 65.406,53.571 66.111,55.657 L73.951,55.657 C74.295,53.504 75.287,51.566 76.721,50.046 L27.477,50.046 ZM77.416,5.273 C77.416,4.221 76.558,3.365 75.505,3.365 L73.703,3.365 C72.648,3.365 71.790,4.221 71.790,5.273 L71.790,7.181 L77.416,7.181 L77.416,5.273 ZM111.624,23.227 C111.624,16.236 105.920,10.547 98.909,10.547 L95.196,10.547 L95.196,14.250 C95.196,15.179 94.440,15.933 93.508,15.933 C92.575,15.933 91.821,15.179 91.821,14.250 L91.821,10.547 L57.387,10.547 L57.387,14.250 C57.387,15.179 56.631,15.933 55.700,15.933 C54.768,15.933 54.012,15.179 54.012,14.250 L54.012,10.547 L50.299,10.547 C43.288,10.547 37.584,16.236 37.584,23.227 L37.584,26.818 C37.584,33.809 43.288,39.498 50.299,39.498 L54.012,39.498 L54.012,21.432 C54.012,20.502 54.768,19.749 55.700,19.749 C56.631,19.749 57.387,20.502 57.387,21.432 L57.387,39.498 L91.821,39.498 L91.821,21.432 C91.821,20.502 92.575,19.749 93.508,19.749 C94.440,19.749 95.196,20.502 95.196,21.432 L95.196,39.498 L98.909,39.498 C105.920,39.498 111.624,33.809 111.624,26.818 L111.624,23.227 ZM19.692,60.818 C17.769,60.818 16.204,59.257 16.204,57.340 C16.204,55.421 17.769,53.860 19.692,53.860 C21.616,53.860 23.181,55.421 23.181,57.340 C23.181,59.257 21.616,60.818 19.692,60.818 ZM19.692,57.227 C19.630,57.227 19.580,57.277 19.580,57.340 C19.580,57.401 19.630,57.451 19.692,57.451 C19.755,57.451 19.805,57.401 19.805,57.340 C19.805,57.277 19.755,57.227 19.692,57.227 ZM84.506,53.860 C86.430,53.860 87.994,55.421 87.994,57.340 C87.994,59.257 86.430,60.818 84.506,60.818 C82.582,60.818 81.017,59.257 81.017,57.340 C81.017,55.421 82.582,53.860 84.506,53.860 ZM84.506,57.451 C84.568,57.451 84.618,57.401 84.618,57.340 C84.618,57.277 84.568,57.227 84.506,57.227 C84.444,57.227 84.393,57.277 84.393,57.340 C84.393,57.401 84.444,57.451 84.506,57.451 ZM102.510,53.860 C104.433,53.860 105.998,55.421 105.998,57.340 C105.998,59.257 104.433,60.818 102.510,60.818 C100.586,60.818 99.021,59.257 99.021,57.340 C99.021,55.421 100.586,53.860 102.510,53.860 ZM102.510,57.451 C102.572,57.451 102.622,57.401 102.622,57.340 C102.622,57.277 102.572,57.227 102.510,57.227 C102.448,57.227 102.397,57.277 102.397,57.340 C102.397,57.401 102.448,57.451 102.510,57.451 Z"/>
</svg>