<svg
 xmlns="http://www.w3.org/2000/svg"
 xmlns:xlink="http://www.w3.org/1999/xlink"
 width="32px" height="32px">
<path fill-rule="evenodd"  fill="rgb(255, 255, 255)"
 d="M31.160,23.484 L26.685,19.018 C25.087,17.423 22.370,18.061 21.731,20.134 C21.252,21.570 19.654,22.367 18.215,22.048 C15.019,21.251 10.704,17.104 9.905,13.755 C9.426,12.319 10.384,10.724 11.823,10.246 C13.900,9.608 14.540,6.896 12.942,5.301 L8.467,0.835 C7.188,-0.281 5.271,-0.281 4.152,0.835 L1.115,3.866 C-1.921,7.056 1.435,15.509 8.946,23.005 C16.457,30.502 24.927,34.010 28.124,30.821 L31.160,27.790 C32.279,26.514 32.279,24.600 31.160,23.484 Z"/>
</svg>