<svg
 xmlns="http://www.w3.org/2000/svg"
 xmlns:xlink="http://www.w3.org/1999/xlink"
 width="58px" height="39px">
<path fill-rule="evenodd"  fill="rgb(51, 54, 65)"
 d="M57.484,2.660 C57.162,2.431 56.749,2.375 56.379,2.513 L46.528,6.127 C45.306,6.574 44.334,7.476 43.790,8.666 C43.688,8.890 43.621,9.121 43.554,9.353 C41.863,8.868 38.719,7.855 35.595,6.231 C30.874,3.778 27.268,4.990 24.174,7.369 C22.607,7.400 20.447,7.587 18.323,7.776 C16.968,7.897 15.688,8.008 14.650,8.071 C14.625,7.443 14.479,6.819 14.210,6.229 C13.666,5.039 12.693,4.137 11.472,3.689 L1.621,0.076 C1.252,-0.061 0.836,-0.005 0.516,0.222 C0.192,0.451 -0.000,0.824 -0.000,1.221 L-0.000,25.594 C-0.000,26.268 0.540,26.813 1.208,26.813 L4.738,26.813 C6.239,26.813 7.635,26.099 8.538,24.946 C9.019,25.315 9.589,25.747 10.186,26.199 C11.596,27.269 13.139,28.436 13.817,29.009 C18.316,32.808 23.725,36.910 24.803,37.624 C25.809,38.291 27.622,39.000 29.000,39.000 C29.539,39.000 30.897,39.000 31.851,38.187 C32.834,38.576 33.893,38.557 34.879,38.119 C35.862,37.682 36.657,36.859 37.120,35.858 C38.064,36.053 39.148,35.910 40.131,35.413 C41.053,34.948 41.731,34.243 42.095,33.419 C42.968,33.500 43.900,33.214 44.734,32.570 C45.926,31.651 46.472,30.294 46.317,28.955 L49.383,27.245 C50.280,28.472 51.707,29.251 53.262,29.251 L56.792,29.251 C57.459,29.251 58.000,28.705 58.000,28.032 L58.000,3.658 C58.000,3.261 57.808,2.888 57.484,2.660 ZM34.488,8.397 C38.245,10.351 41.953,11.455 43.509,11.873 C43.554,12.055 43.587,12.240 43.653,12.419 L48.345,25.038 L45.340,26.714 C43.730,24.542 40.240,21.636 36.840,18.810 C34.573,16.926 32.433,15.146 31.063,13.765 C30.685,13.386 30.106,13.301 29.638,13.552 C28.408,14.217 27.853,14.492 26.463,14.632 C26.092,14.670 25.760,14.878 25.561,15.195 C24.614,16.711 21.980,17.433 21.145,16.907 C20.670,16.607 20.578,16.302 20.552,16.070 C20.435,15.033 21.476,13.239 23.202,11.496 C27.478,7.185 30.534,6.341 34.488,8.397 ZM4.738,24.376 L2.417,24.376 L2.417,2.961 L10.646,5.979 C11.257,6.204 11.743,6.655 12.015,7.250 C12.287,7.845 12.311,8.512 12.083,9.125 L7.001,22.794 C6.649,23.740 5.739,24.376 4.738,24.376 ZM43.267,30.633 C42.858,30.950 42.284,31.126 42.030,30.869 C42.017,30.856 41.996,30.857 41.983,30.845 C41.960,30.823 41.948,30.794 41.923,30.774 C41.060,30.086 37.189,26.092 34.797,23.576 C34.336,23.089 33.570,23.071 33.090,23.539 C32.607,24.004 32.591,24.776 33.053,25.261 C33.615,25.852 38.121,30.586 39.925,32.242 C39.790,32.777 39.299,33.107 39.049,33.234 C38.275,33.625 37.468,33.560 37.166,33.277 C37.157,33.268 37.143,33.269 37.134,33.260 C37.119,33.247 37.113,33.229 37.097,33.216 C35.648,32.048 32.012,28.152 31.190,27.250 C30.738,26.754 29.975,26.723 29.482,27.177 C28.992,27.633 28.959,28.404 29.411,28.899 C29.450,28.943 33.013,32.819 35.014,34.619 C34.818,35.189 34.417,35.661 33.903,35.890 C33.523,36.060 32.930,36.147 32.252,35.642 C30.517,34.158 27.035,30.419 26.350,29.680 C25.895,29.187 25.128,29.162 24.642,29.622 C24.155,30.081 24.129,30.852 24.584,31.344 C25.396,32.220 27.796,34.786 29.621,36.523 C29.417,36.548 29.203,36.563 29.000,36.563 C28.200,36.563 26.825,36.047 26.130,35.587 C25.283,35.025 19.963,31.021 15.370,27.142 C14.674,26.554 13.089,25.351 11.637,24.251 C10.859,23.662 10.143,23.119 9.614,22.709 L14.139,10.540 C15.313,10.488 16.878,10.351 18.536,10.204 C19.473,10.121 20.411,10.039 21.307,9.969 C19.929,11.396 17.881,13.951 18.151,16.346 C18.275,17.436 18.866,18.344 19.863,18.973 C21.837,20.219 25.492,19.174 27.252,16.990 C28.389,16.825 29.157,16.532 29.995,16.113 C31.411,17.455 33.309,19.033 35.303,20.691 C38.775,23.576 42.710,26.846 43.751,28.680 C44.331,29.700 43.527,30.433 43.267,30.633 ZM55.583,26.813 L53.262,26.813 C52.260,26.813 51.350,26.178 50.999,25.232 L45.917,11.563 C45.689,10.949 45.712,10.282 45.985,9.687 C46.256,9.092 46.743,8.641 47.354,8.416 L55.583,5.398 L55.583,26.813 Z"/>
</svg>