<svg
 xmlns="http://www.w3.org/2000/svg"
 xmlns:xlink="http://www.w3.org/1999/xlink"
 width="50px" height="50px">
<path fill-rule="evenodd"  fill="rgb(51, 54, 65)"
 d="M50.000,45.455 L50.000,48.864 C50.000,49.492 49.492,50.000 48.864,50.000 L1.136,50.000 C0.508,50.000 -0.000,49.492 -0.000,48.864 L-0.000,45.455 C-0.000,42.949 2.038,40.910 4.545,40.910 L4.545,20.455 L1.136,20.455 C0.508,20.455 -0.000,19.950 -0.000,19.322 L-0.000,14.777 C-0.000,14.377 0.211,14.005 0.556,13.801 L22.784,0.598 C24.245,-0.207 25.803,-0.183 27.185,0.582 C27.195,0.588 27.205,0.593 27.215,0.600 L49.444,13.801 C49.789,14.005 50.000,14.377 50.000,14.777 L50.000,19.322 C50.000,19.950 49.492,20.455 48.864,20.455 L45.454,20.455 L45.454,40.910 C47.961,40.910 50.000,42.949 50.000,45.455 ZM47.727,18.183 L47.727,15.421 L26.071,2.558 C25.372,2.177 24.619,2.176 23.911,2.566 L2.273,15.421 L2.273,18.183 L47.727,18.183 ZM6.818,20.455 L6.818,40.909 L11.363,40.909 L11.363,20.455 L6.818,20.455 ZM13.636,20.455 L13.636,40.909 L20.454,40.909 L20.454,20.455 L13.636,20.455 ZM22.727,20.455 L22.727,40.909 L27.273,40.909 L27.273,20.455 L22.727,20.455 ZM29.545,20.455 L29.545,40.909 L36.363,40.909 L36.363,20.455 L29.545,20.455 ZM38.636,20.455 L38.636,40.909 L43.182,40.909 L43.182,20.455 L38.636,20.455 ZM44.318,43.182 L5.682,43.182 L4.545,43.182 C3.292,43.182 2.273,44.202 2.273,45.455 L2.273,47.727 L47.727,47.727 L47.727,45.455 C47.727,44.202 46.707,43.182 45.454,43.182 L44.318,43.182 ZM24.998,6.817 C27.506,6.817 29.545,8.857 29.545,11.365 C29.545,13.872 27.506,15.912 24.998,15.912 C22.490,15.912 20.450,13.872 20.450,11.365 C20.450,8.857 22.490,6.817 24.998,6.817 ZM24.998,13.639 C26.252,13.639 27.273,12.619 27.273,11.365 C27.273,10.111 26.252,9.090 24.998,9.090 C23.744,9.090 22.723,10.111 22.723,11.365 C22.723,12.619 23.744,13.639 24.998,13.639 Z"/>
</svg>