<svg
 xmlns="http://www.w3.org/2000/svg"
 xmlns:xlink="http://www.w3.org/1999/xlink"
 width="55px" height="49px">
<path fill-rule="evenodd"  fill="rgb(51, 54, 65)"
 d="M53.564,40.134 L51.381,40.134 L51.381,47.820 C51.379,48.471 50.848,48.998 50.192,49.000 L8.015,49.000 C4.078,48.997 0.886,45.830 0.883,41.922 L0.883,11.098 C0.886,7.190 4.078,4.023 8.015,4.021 L17.834,4.021 L19.771,1.425 C20.390,0.600 21.342,0.083 22.377,0.010 C23.411,-0.063 24.427,0.317 25.156,1.048 L28.140,4.021 L41.122,4.021 C43.419,4.023 45.280,5.869 45.283,8.149 L45.283,15.875 L50.121,15.875 C50.776,15.877 51.307,16.404 51.309,17.055 L51.309,24.387 L53.552,24.387 C54.211,24.388 54.746,24.913 54.753,25.567 L54.753,38.955 C54.751,39.605 54.220,40.132 53.564,40.134 ZM8.015,6.380 C5.389,6.379 3.259,8.491 3.260,11.098 L3.260,11.157 C3.259,13.763 5.389,15.875 8.015,15.875 L8.966,15.875 L16.075,6.380 L8.015,6.380 ZM23.468,2.711 C23.224,2.469 22.886,2.344 22.541,2.369 C22.196,2.394 21.880,2.566 21.673,2.841 L11.926,15.875 L36.675,15.875 L23.468,2.711 ZM42.906,8.149 C42.906,7.680 42.718,7.229 42.384,6.897 C42.049,6.565 41.595,6.379 41.122,6.380 L30.517,6.380 L40.039,15.875 L42.906,15.875 L42.906,8.149 ZM48.944,18.234 L39.884,18.234 C39.689,18.281 39.485,18.281 39.290,18.234 L8.015,18.234 C6.260,18.236 4.566,17.594 3.260,16.429 L3.260,41.922 C3.259,44.529 5.389,46.641 8.015,46.641 L48.991,46.641 L49.003,46.641 L49.003,40.146 L42.216,40.146 C38.934,40.145 36.273,37.504 36.272,34.248 L36.272,30.285 C36.273,27.028 38.934,24.388 42.216,24.387 L48.944,24.387 L48.944,18.234 ZM52.364,26.746 L50.489,26.746 C50.250,26.825 49.991,26.825 49.752,26.746 L42.204,26.746 C40.236,26.752 38.644,28.333 38.638,30.285 L38.638,34.248 C38.644,36.200 40.236,37.781 42.204,37.786 L52.364,37.786 L52.364,26.746 ZM42.204,30.285 C42.206,29.634 42.737,29.107 43.392,29.105 C43.708,29.104 44.011,29.228 44.234,29.449 C44.457,29.670 44.583,29.971 44.581,30.285 L44.581,34.248 C44.581,34.899 44.049,35.427 43.392,35.427 C42.736,35.427 42.204,34.899 42.204,34.248 L42.204,30.285 Z"/>
<path fill-rule="evenodd"  fill="rgb(51, 54, 65)"
 d="M30.354,17.250 L23.635,10.609 C23.398,10.376 23.070,10.256 22.735,10.280 C22.401,10.304 22.094,10.470 21.893,10.734 L16.979,17.250 L14.111,17.250 L16.459,14.140 L18.167,11.870 L20.047,9.372 C20.648,8.577 21.571,8.080 22.576,8.009 C23.580,7.940 24.565,8.305 25.274,9.008 L28.170,11.870 L30.477,14.140 L33.622,17.250 L30.354,17.250 Z"/>
</svg>