<svg
 xmlns="http://www.w3.org/2000/svg"
 xmlns:xlink="http://www.w3.org/1999/xlink"
 width="41px" height="41px">
<path fill-rule="evenodd"  fill="rgb(222, 46, 36)"
 d="M39.924,30.082 L34.192,24.357 C32.144,22.313 28.664,23.131 27.845,25.789 C27.231,27.629 25.184,28.651 23.341,28.242 C19.247,27.220 13.719,21.904 12.695,17.610 C12.081,15.769 13.310,13.725 15.152,13.111 C17.813,12.294 18.632,8.818 16.585,6.773 L10.853,1.048 C9.215,-0.384 6.758,-0.384 5.325,1.048 L1.435,4.933 C-2.454,9.022 1.845,19.859 11.467,29.469 C21.089,39.079 31.940,43.577 36.034,39.488 L39.924,35.603 C41.357,33.967 41.357,31.514 39.924,30.082 Z"/>
</svg>