<svg
 xmlns="http://www.w3.org/2000/svg"
 xmlns:xlink="http://www.w3.org/1999/xlink"
 width="52px" height="52px">
<path fill-rule="evenodd"  fill="rgb(51, 54, 65)"
 d="M51.752,40.635 C51.717,40.591 48.323,36.225 47.219,32.735 C46.957,31.904 46.631,30.734 46.256,29.394 C44.461,22.977 42.829,17.519 41.019,15.710 C39.058,13.749 31.480,12.441 28.365,11.975 L28.365,4.727 C28.365,2.120 26.245,-0.000 23.637,-0.000 L4.727,-0.000 C2.120,-0.000 -0.000,2.120 -0.000,4.727 L-0.000,37.818 C-0.000,40.425 2.120,42.545 4.727,42.545 L23.637,42.545 C24.148,42.545 24.641,42.432 25.123,42.266 C26.152,43.221 27.318,43.947 28.540,44.687 C30.949,46.149 33.441,47.659 35.615,51.411 C35.826,51.776 36.217,52.000 36.638,52.000 C47.884,52.000 51.884,41.889 51.924,41.786 C52.073,41.399 52.007,40.962 51.752,40.635 ZM28.365,21.836 L32.110,23.335 C32.293,23.977 32.604,25.015 32.916,25.826 C32.772,26.079 32.649,26.361 32.517,26.661 C32.303,27.150 32.068,27.685 31.741,28.100 C30.558,27.257 29.357,25.470 28.365,23.571 L28.365,21.836 ZM26.001,4.727 L26.001,18.898 C24.526,16.733 22.039,14.174 19.785,13.715 C18.654,13.480 17.654,13.765 16.892,14.528 C14.046,17.374 15.676,22.211 17.937,25.489 C19.746,28.112 21.089,31.212 21.279,33.203 C21.310,33.534 21.324,33.848 21.339,34.157 C21.413,35.735 21.512,37.378 23.391,40.182 L11.819,40.182 L11.819,2.363 L23.637,2.363 C24.940,2.363 26.001,3.424 26.001,4.727 ZM9.455,40.182 L7.091,40.182 L7.091,2.363 L9.455,2.363 L9.455,40.182 ZM2.364,37.818 L2.364,4.727 C2.364,3.424 3.424,2.363 4.727,2.363 L4.727,40.182 C3.424,40.182 2.364,39.121 2.364,37.818 ZM37.298,49.622 C34.894,45.776 32.063,44.060 29.766,42.667 C28.155,41.690 26.764,40.846 25.775,39.487 C23.829,36.810 23.772,35.592 23.701,34.047 C23.685,33.700 23.667,33.348 23.631,32.979 C23.404,30.585 21.933,27.118 19.883,24.147 C18.060,21.506 16.871,17.892 18.564,16.199 C18.701,16.061 18.884,15.947 19.313,16.031 C21.165,16.408 24.153,19.852 24.905,21.715 C25.809,23.955 28.259,29.309 31.457,30.637 C31.820,30.785 32.237,30.747 32.566,30.529 C33.748,29.741 34.287,28.510 34.682,27.611 C34.796,27.352 34.950,26.997 34.947,26.972 C35.431,26.637 35.594,25.998 35.331,25.471 C34.971,24.752 34.417,22.828 34.234,22.147 C34.137,21.788 33.877,21.495 33.531,21.357 L28.365,19.291 L28.365,14.370 C32.660,15.035 38.234,16.268 39.348,17.381 C40.867,18.900 42.815,25.867 43.979,30.030 C44.363,31.401 44.697,32.598 44.966,33.446 C45.957,36.585 48.443,40.145 49.455,41.516 C48.523,43.404 45.004,49.302 37.298,49.622 Z"/>
</svg>