<svg
 xmlns="http://www.w3.org/2000/svg"
 xmlns:xlink="http://www.w3.org/1999/xlink"
 width="54px" height="45px">
<path fill-rule="evenodd"  fill="rgb(51, 54, 65)"
 d="M20.221,28.767 L21.966,28.767 L21.966,30.814 L20.221,30.814 L20.221,32.976 L21.966,32.976 L21.966,36.753 L24.771,36.753 L24.771,32.976 L33.357,32.976 L33.357,30.814 L24.771,30.814 L24.771,28.738 L26.002,28.738 C28.577,28.738 30.590,28.128 32.040,26.907 C33.490,25.687 34.215,24.000 34.215,21.847 C34.215,20.368 33.862,19.195 33.156,18.330 C32.603,17.677 31.897,17.220 31.039,16.961 C30.180,16.701 28.968,16.571 27.404,16.571 L21.966,16.571 L21.966,26.547 L20.221,26.547 L20.221,28.767 ZM24.771,18.705 L26.488,18.705 C28.167,18.705 29.379,18.964 30.123,19.483 C30.867,20.002 31.239,20.858 31.239,22.049 C31.239,23.491 30.771,24.601 29.837,25.379 C28.902,26.158 27.585,26.547 25.887,26.547 L24.771,26.547 L24.771,18.705 Z"/>
<path fill-rule="evenodd"  fill="rgb(51, 54, 65)"
 d="M49.500,6.750 L38.250,6.750 L38.250,4.500 C38.250,2.018 36.231,-0.000 33.750,-0.000 L20.250,-0.000 C17.769,-0.000 15.750,2.018 15.750,4.500 L15.750,6.750 L4.500,6.750 C2.019,6.750 -0.000,8.768 -0.000,11.250 L-0.000,40.500 C-0.000,42.982 2.019,45.000 4.500,45.000 L49.500,45.000 C51.981,45.000 54.000,42.982 54.000,40.500 L54.000,11.250 C54.000,8.768 51.981,6.750 49.500,6.750 ZM51.750,11.250 L51.750,15.636 C48.314,15.138 45.612,12.435 45.114,9.000 L49.500,9.000 C50.741,9.000 51.750,10.010 51.750,11.250 ZM51.750,17.886 L51.750,33.863 C47.075,34.389 43.389,38.075 42.864,42.750 L11.136,42.750 C10.610,38.075 6.924,34.389 2.250,33.863 L2.250,17.886 C6.924,17.360 10.610,13.674 11.136,9.000 L42.864,9.000 C43.389,13.674 47.075,17.360 51.750,17.886 ZM18.000,4.500 C18.000,3.260 19.008,2.250 20.250,2.250 L33.750,2.250 C34.991,2.250 36.000,3.260 36.000,4.500 L36.000,6.750 L18.000,6.750 L18.000,4.500 ZM4.500,9.000 L8.886,9.000 C8.388,12.435 5.685,15.138 2.250,15.636 L2.250,11.250 C2.250,10.010 3.258,9.000 4.500,9.000 ZM2.250,40.500 L2.250,36.114 C5.685,36.612 8.388,39.314 8.886,42.750 L4.500,42.750 C3.258,42.750 2.250,41.740 2.250,40.500 ZM49.500,42.750 L45.114,42.750 C45.612,39.314 48.314,36.612 51.750,36.114 L51.750,40.500 C51.750,41.740 50.741,42.750 49.500,42.750 Z"/>
</svg>