<svg
 xmlns="http://www.w3.org/2000/svg"
 xmlns:xlink="http://www.w3.org/1999/xlink"
 width="33px" height="33px">
<path fill-rule="evenodd"  fill="rgb(51, 54, 65)"
 d="M31.880,26.007 L26.429,20.575 C27.420,18.600 28.080,16.295 28.080,13.991 C28.080,6.254 21.804,-0.000 14.040,-0.000 C6.277,-0.000 -0.000,6.254 -0.000,13.991 C-0.000,21.727 6.277,27.982 14.040,27.982 C16.353,27.982 18.665,27.324 20.647,26.336 L26.098,31.768 C27.750,33.414 30.228,33.414 31.880,31.768 C33.366,30.122 33.366,27.653 31.880,26.007 ZM14.040,24.690 C8.094,24.690 3.304,19.916 3.304,13.991 C3.304,8.065 8.094,3.292 14.040,3.292 C19.987,3.292 24.777,8.065 24.777,13.991 C24.777,19.916 19.987,24.690 14.040,24.690 Z"/>
</svg>